<svg width="45" height="32" viewBox="0 0 45 32" fill="none" xmlns="http://www.w3.org/2000/svg" alt="Created by Mada Creative from the Noun Project">
<path fill-rule="evenodd" clip-rule="evenodd" d="M45 4.36364C45 3.20582 44.526 2.096 43.6815 1.27854C42.8385 0.459633 41.694 0 40.5 0C32.769 0 12.231 0 4.5 0C3.306 0 2.1615 0.459633 1.3185 1.27854C0.474002 2.096 0 3.20582 0 4.36364C0 9.93745 0 22.0625 0 27.6364C0 28.7942 0.474002 29.904 1.3185 30.7215C2.1615 31.5404 3.306 32 4.5 32C12.231 32 32.769 32 40.5 32C41.694 32 42.8385 31.5404 43.6815 30.7215C44.526 29.904 45 28.7942 45 27.6364V4.36364ZM3 26.1818V27.6364C3 28.0218 3.1575 28.3927 3.4395 28.6647C3.72 28.9382 4.1025 29.0909 4.5 29.0909H9V27.6364C9 26.8335 8.328 26.1818 7.5 26.1818H3ZM33 2.90909H12V4.36364C12 6.77382 9.9855 8.72727 7.5 8.72727H3V23.2727H7.5C9.9855 23.2727 12 25.2262 12 27.6364V29.0909H33V27.6364C33 25.2262 35.0145 23.2727 37.5 23.2727H42V8.72727H37.5C35.0145 8.72727 33 6.77382 33 4.36364V2.90909ZM42 26.1818H37.5C36.672 26.1818 36 26.8335 36 27.6364V29.0909H40.5C40.8975 29.0909 41.28 28.9382 41.5605 28.6647C41.8425 28.3927 42 28.0218 42 27.6364V26.1818ZM36 2.90909V4.36364C36 5.16655 36.672 5.81818 37.5 5.81818H42V4.36364C42 3.97818 41.8425 3.60727 41.5605 3.33527C41.28 3.06182 40.8975 2.90909 40.5 2.90909H36ZM9 2.90909H4.5C4.1025 2.90909 3.72 3.06182 3.4395 3.33527C3.1575 3.60727 3 3.97818 3 4.36364V5.81818H7.5C8.328 5.81818 9 5.16655 9 4.36364V2.90909Z" fill="#FAF9FA"/>
<path fill-rule="evenodd" clip-rule="evenodd" d="M22.5 8.72705C18.36 8.72705 15 11.9852 15 15.9998C15 20.0143 18.36 23.2725 22.5 23.2725C26.64 23.2725 30 20.0143 30 15.9998C30 11.9852 26.64 8.72705 22.5 8.72705ZM22.5 11.6361C24.984 11.6361 27 13.5911 27 15.9998C27 18.4085 24.984 20.3634 22.5 20.3634C20.016 20.3634 18 18.4085 18 15.9998C18 13.5911 20.016 11.6361 22.5 11.6361Z" fill="#FAF9FA"/>
<path fill-rule="evenodd" clip-rule="evenodd" d="M7.5 17.4545H10.5C11.328 17.4545 12 16.8029 12 16C12 15.197 11.328 14.5454 10.5 14.5454H7.5C6.672 14.5454 6 15.197 6 16C6 16.8029 6.672 17.4545 7.5 17.4545Z" fill="#FAF9FA"/>
<path fill-rule="evenodd" clip-rule="evenodd" d="M34.5 17.4545H37.5C38.328 17.4545 39 16.8029 39 16C39 15.197 38.328 14.5454 37.5 14.5454H34.5C33.672 14.5454 33 15.197 33 16C33 16.8029 33.672 17.4545 34.5 17.4545Z" fill="#FAF9FA"/>
</svg>
