<svg width="32" height="32" viewBox="0 0 32 32" fill="none" xmlns="http://www.w3.org/2000/svg">
<path d="M30.7062 25.9456V2.20809H31.3937C31.6562 2.20809 31.8625 1.99559 31.8625 1.73309C31.8625 1.47059 31.65 1.26434 31.3937 1.26434H24.4562C24.4375 1.20809 24.4187 1.14559 24.4 1.08934C24.2375 0.664339 23.9125 0.326839 23.4937 0.145589C23.075 -0.0356612 22.6125 -0.0481612 22.1875 0.114339C21.7625 0.276839 21.425 0.601839 21.2437 1.02059C21.2062 1.10184 21.2 1.18309 21.2062 1.26434H10.9C10.8812 1.20809 10.8625 1.14559 10.8438 1.08934C10.6812 0.664339 10.3562 0.326839 9.9375 0.145589C9.075 -0.235661 8.0625 0.158089 7.68125 1.02059C7.64375 1.10184 7.6375 1.18309 7.64375 1.26434H0.46875C0.20625 1.26434 0 1.47684 0 1.73309C0 1.98934 0.2125 2.20184 0.46875 2.20184H1.25625V25.9456C0.55 26.0268 0 26.6268 0 27.3581V30.2831C0 31.0643 0.6375 31.6956 1.4125 31.6956H30.5812C31.3625 31.6956 31.9937 31.0581 31.9937 30.2831V27.3581C32 26.6143 31.4312 26.0081 30.7062 25.9456ZM22.525 0.989339C22.7188 0.914339 22.925 0.920589 23.1125 1.00184C23.2437 1.05809 23.35 1.14559 23.425 1.25809H22.175C22.2625 1.13934 22.3875 1.04559 22.525 0.989339ZM9.5625 1.00809C9.69375 1.06434 9.8 1.15184 9.875 1.26434H8.625C8.83125 0.970589 9.21875 0.858089 9.5625 1.00809ZM2.20625 2.20809H9.8375C9.69375 2.37684 9.4875 2.47684 9.25625 2.47684C8.99375 2.47684 8.7875 2.68934 8.7875 2.95184C8.7875 2.98934 8.79375 3.02059 8.8 3.05184V4.12059L3.1625 7.15184C3.04375 7.21434 2.96875 7.32059 2.93125 7.43934C2.90625 7.49559 2.89375 7.55809 2.89375 7.62059C2.89375 7.88309 3.10625 8.09559 3.3625 8.09559H6.53125V9.45809C6.53125 9.46434 6.53125 9.46434 6.53125 9.47059C4.98125 10.3518 3.93125 12.0081 3.9125 13.9018L2.98125 22.9581C2.93125 23.3768 3.05625 23.7956 3.3375 24.1143C3.61875 24.4331 4.01875 24.6143 4.44375 24.6143H13.6875C14.1125 24.6143 14.5188 24.4331 14.7937 24.1143C15.075 23.7956 15.2 23.3768 15.15 22.9581L14.2312 13.9331C14.225 12.1268 13.2812 10.5393 11.8625 9.62059C11.8813 9.57059 11.8938 9.51434 11.8938 9.45184V8.08934H15.2812C15.5437 8.08934 15.75 7.87684 15.75 7.62059C15.75 7.55809 15.7375 7.50184 15.7188 7.44559C15.6875 7.32684 15.6062 7.21434 15.4875 7.15184L9.7875 4.08934C9.76875 4.08309 9.75625 4.07059 9.7375 4.06434V3.34559C10.2125 3.20184 10.6062 2.86434 10.8125 2.39559C10.8375 2.33309 10.8625 2.27059 10.8813 2.20184H23.3813C23.2375 2.37059 23.0312 2.47059 22.8 2.47059C22.5375 2.47059 22.3312 2.68309 22.3312 2.94559C22.3312 2.98309 22.3375 3.01434 22.3438 3.04559V4.12059L16.7062 7.15184C16.5875 7.21434 16.5125 7.32059 16.475 7.43934C16.45 7.49559 16.4375 7.55809 16.4375 7.62059C16.4375 7.88309 16.65 8.09559 16.9062 8.09559H20.075V9.39559C19.1813 9.80184 18.5625 10.7018 18.5625 11.7456C18.5625 12.5456 18.925 13.2831 19.55 13.7706V18.5018C19.55 18.7643 19.7625 18.9706 20.0187 18.9706H25.9375C26.2 18.9706 26.4062 18.7581 26.4062 18.5018V13.7706C27.025 13.2831 27.3937 12.5456 27.3937 11.7456C27.3937 10.5456 26.5688 9.53309 25.45 9.24559V8.10184H28.9C29.1625 8.10184 29.3687 7.88934 29.3687 7.62684C29.3687 7.44559 29.2687 7.28934 29.1187 7.21434C29.0938 7.19559 29.0688 7.17684 29.0375 7.15809L23.3375 4.09559C23.3188 4.08934 23.3062 4.07684 23.2875 4.07059V3.34559C23.7625 3.20184 24.1562 2.86434 24.3625 2.39559C24.3875 2.33309 24.4125 2.27059 24.4312 2.20184H29.75V25.9393H21.4062H18.75H2.20625V2.20809ZM11.9563 21.1768C11.6938 21.1768 11.4875 21.3893 11.4875 21.6518V23.5518C11.4875 23.5956 11.4938 23.6331 11.5063 23.6706H9.63125C9.64375 23.6331 9.65 23.5893 9.65 23.5518V21.6518C9.65 21.3893 9.4375 21.1768 9.175 21.1768C8.9125 21.1768 8.70625 21.3893 8.70625 21.6518V23.5518C8.70625 23.5956 8.7125 23.6331 8.725 23.6706H6.85C6.8625 23.6331 6.86875 23.5893 6.86875 23.5518V21.6518C6.86875 21.3893 6.65625 21.1768 6.4 21.1768C6.14375 21.1768 5.925 21.3893 5.925 21.6518V23.5518C5.925 23.5956 5.93125 23.6331 5.94375 23.6706H4.44375C4.2875 23.6706 4.14375 23.6081 4.04375 23.4893C3.94375 23.3706 3.89375 23.2206 3.91875 23.0706C3.91875 23.0643 3.91875 23.0643 3.91875 23.0581L4.84375 14.0518C4.85 14.0268 4.85 13.9956 4.85 13.9643L4.9 13.5018C4.90625 13.4581 4.9 13.4143 4.89375 13.3706C5.18125 11.3206 6.94375 9.73934 9.06875 9.73934C11.3938 9.73934 13.2875 11.6331 13.2875 13.9581C13.2875 13.9768 13.2875 13.9893 13.2875 14.0081L14.2188 23.0581C14.2188 23.0643 14.2188 23.0643 14.2188 23.0706C14.2375 23.2268 14.1938 23.3706 14.0938 23.4893C13.9937 23.6081 13.85 23.6706 13.6938 23.6706H12.4125C12.425 23.6331 12.4312 23.5893 12.4312 23.5518V21.6518C12.425 21.3893 12.2125 21.1768 11.9563 21.1768ZM10.95 9.15809C10.3687 8.92684 9.73125 8.80184 9.06875 8.80184C8.5125 8.80184 7.975 8.88934 7.46875 9.05809V8.10184H10.95V9.15809ZM5.15 7.15184L9.3 4.92059C9.30625 4.91434 9.3125 4.91434 9.31875 4.90809C9.325 4.91434 9.33125 4.91434 9.3375 4.92059L13.4875 7.15184H5.15ZM20.4937 16.3831V13.5206C20.4937 13.3581 20.4125 13.2081 20.275 13.1206C19.7937 12.8206 19.5125 12.3018 19.5125 11.7393C19.5125 10.8393 20.2437 10.1018 21.15 10.1018C21.7375 10.1018 22.2812 10.4206 22.575 10.9331C22.6562 11.0831 22.8125 11.1706 22.9875 11.1706C23.1625 11.1706 23.3125 11.0768 23.4 10.9331C23.6875 10.4206 24.2375 10.1018 24.825 10.1018C25.725 10.1018 26.4625 10.8331 26.4625 11.7393C26.4625 12.3018 26.175 12.8206 25.7 13.1206C25.5625 13.2081 25.4813 13.3581 25.4813 13.5206V16.3831H20.4937ZM25.4625 17.3268V18.0268H20.4937V17.3268H25.4625ZM21.025 9.17059V8.10184H24.5063V9.18309C23.925 9.25184 23.3875 9.52059 22.9813 9.93309C22.5 9.45184 21.8438 9.16434 21.1437 9.16434C21.1062 9.16434 21.0625 9.16434 21.025 9.17059ZM18.7062 7.15184L22.8563 4.92059C22.8625 4.91434 22.8687 4.91434 22.875 4.90809C22.8813 4.91434 22.8875 4.91434 22.8937 4.92059L27.0438 7.15184H18.7062ZM31.0562 30.2831C31.0562 30.5456 30.8438 30.7518 30.5875 30.7518H1.41875C1.15625 30.7518 0.94375 30.5393 0.94375 30.2831V27.3581C0.94375 27.0956 1.15625 26.8893 1.41875 26.8893H18.75H21.4062H30.5875C30.85 26.8893 31.0562 27.1018 31.0562 27.3581V30.2831Z" fill="#343953"/>
</svg>
