<svg width="45" height="45" viewBox="0 0 45 45" fill="none" xmlns="http://www.w3.org/2000/svg" alt="Created by Mada Creative from the Noun Project">
<path fill-rule="evenodd" clip-rule="evenodd" d="M22.5 0C10.0815 0 0 10.0815 0 22.5C0 34.9185 10.0815 45 22.5 45C34.9185 45 45 34.9185 45 22.5C45 10.0815 34.9185 0 22.5 0ZM3.057 24C3.8235 34.062 12.243 42 22.5 42C24.048 42 25.5555 41.8185 27 41.4765V37.5C27 37.1025 26.8425 36.72 26.5605 36.4395C26.28 36.1575 25.8975 36 25.5 36H22.5C20.0145 36 18 33.9855 18 31.5C18 30.672 17.328 30 16.5 30H12.354C10.65 30 9.0915 29.037 8.3295 27.513L6.987 24.8295C6.7335 24.321 6.2145 24 5.646 24H3.057ZM33.1905 6.1935C30.1215 4.1745 26.4465 3 22.5 3C21.9945 3 21.495 3.01949 21 3.05699V7.5C21 8.694 20.526 9.8385 19.6815 10.6815C18.8385 11.526 17.694 12 16.5 12C15.672 12 15 12.672 15 13.5C15 14.694 14.526 15.8385 13.6815 16.6815C12.8385 17.526 11.694 18 10.5 18H3.5235C3.2925 18.9735 3.135 19.9755 3.057 21H5.646C7.35 21 8.9085 21.963 9.6705 23.487L11.013 26.1705C11.2665 26.679 11.7855 27 12.354 27H16.5C18.9855 27 21 29.0145 21 31.5C21 32.328 21.672 33 22.5 33H25.5C26.694 33 27.8385 33.474 28.6815 34.3185C29.526 35.1615 30 36.306 30 37.5V40.503C33.177 39.177 35.928 37.035 37.992 34.338L36.987 32.3295C36.7335 31.821 36.2145 31.5 35.646 31.5H34.5C32.0145 31.5 30 29.4855 30 27V25.5C30 25.1025 29.8425 24.72 29.5605 24.4395C29.28 24.1575 28.8975 24 28.5 24H27C25.806 24 24.6615 23.526 23.8185 22.6815C22.974 21.8385 22.5 20.694 22.5 19.5V18.531C22.5 16.6905 23.6205 15.036 25.329 14.3535L29.0565 12.861C29.6265 12.6345 30 12.0825 30 11.469V10.5C30 8.4705 31.344 6.7545 33.1905 6.1935ZM36.5655 9H34.5C33.672 9 33 9.672 33 10.5V11.469C33 13.3095 31.8795 14.964 30.171 15.6465L26.4435 17.139C25.8735 17.3655 25.5 17.9175 25.5 18.531V19.5C25.5 19.8975 25.6575 20.28 25.9395 20.5605C26.22 20.8425 26.6025 21 27 21H28.5C29.694 21 30.8385 21.474 31.6815 22.3185C32.526 23.1615 33 24.306 33 25.5V27C33 27.828 33.672 28.5 34.5 28.5H35.646C37.35 28.5 38.9085 29.463 39.6705 30.987L39.8655 31.3755C41.2305 28.7115 42 25.695 42 22.5C42 17.2635 39.9315 12.5055 36.5655 9ZM18 3.5235C11.883 4.9695 6.876 9.3015 4.497 15H10.5C10.8975 15 11.28 14.8425 11.5605 14.5605C11.8425 14.28 12 13.8975 12 13.5C12 11.0145 14.0145 9 16.5 9C16.8975 9 17.28 8.8425 17.5605 8.5605C17.8425 8.28 18 7.8975 18 7.5V3.5235Z" fill="#FAF9FA"/>
</svg>
