<svg width="32" height="32" viewBox="0 0 32 32" fill="none" xmlns="http://www.w3.org/2000/svg">
<path d="M11 17.5H1.50002C1.40017 17.5 1.30261 17.4701 1.21991 17.4141C1.13722 17.3581 1.07317 17.2787 1.03602 17.186L0.546524 15.962C0.173949 15.035 0.105147 14.0136 0.350023 13.045L0.740523 11.483C0.899619 10.8445 0.888412 10.1754 0.708023 9.5425C0.475603 8.72773 0.465131 7.86565 0.677691 7.04547C0.890251 6.2253 1.31812 5.47682 1.91702 4.8775L2.00002 4.793V0.5C2.00002 0.367392 2.0527 0.240215 2.14647 0.146447C2.24024 0.0526784 2.36742 0 2.50002 0L4.50002 0C4.63263 0 4.75981 0.0526784 4.85358 0.146447C4.94734 0.240215 5.00002 0.367392 5.00002 0.5V2C5.00002 3.06087 5.42145 4.07828 6.1716 4.82843C6.92174 5.57857 7.93916 6 9.00002 6C10.0609 6 11.0783 5.57857 11.8285 4.82843C12.5786 4.07828 13 3.06087 13 2V0.5C13 0.367392 13.0527 0.240215 13.1465 0.146447C13.2402 0.0526784 13.3674 0 13.5 0L15.5 0C15.6326 0 15.7598 0.0526784 15.8536 0.146447C15.9473 0.240215 16 0.367392 16 0.5V4.793L16.0845 4.8775C16.6834 5.47682 17.1113 6.2253 17.3239 7.04547C17.5364 7.86565 17.5259 8.72773 17.2935 9.5425C17.1131 10.1754 17.1019 10.8445 17.261 11.483L17.65 13.045C17.6672 13.1091 17.6715 13.176 17.6626 13.2418C17.6536 13.3076 17.6317 13.3709 17.598 13.4281C17.5644 13.4853 17.5197 13.5353 17.4665 13.575C17.4133 13.6148 17.3528 13.6435 17.2884 13.6596C17.224 13.6757 17.157 13.6789 17.0914 13.6688C17.0258 13.6587 16.9628 13.6357 16.9062 13.6011C16.8496 13.5664 16.8004 13.5209 16.7616 13.467C16.7227 13.4132 16.695 13.3522 16.68 13.2875L16.2895 11.726C16.0877 10.9172 16.1018 10.0696 16.3305 9.268C16.5141 8.62467 16.5225 7.94396 16.3546 7.29633C16.1868 6.6487 15.849 6.0577 15.376 5.5845L15.145 5.3535C15.0518 5.25951 14.9997 5.13238 15 5V1H14V2C14 3.32608 13.4732 4.59785 12.5356 5.53553C11.5979 6.47322 10.3261 7 9.00002 7C7.67394 7 6.40217 6.47322 5.46449 5.53553C4.52681 4.59785 4.00002 3.32608 4.00002 2V1H3.00002V4.865C2.9997 5.08429 2.91272 5.29457 2.75802 5.45L2.62252 5.5855C2.14959 6.0587 1.81173 6.6497 1.64391 7.29733C1.47609 7.94496 1.48442 8.62567 1.66802 9.269C1.8967 10.0706 1.91084 10.9182 1.70902 11.727L1.31852 13.2885C1.12562 14.0535 1.18041 14.8601 1.47502 15.592L1.83852 16.5H11C11.1326 16.5 11.2598 16.5527 11.3536 16.6464C11.4473 16.7402 11.5 16.8674 11.5 17C11.5 17.1326 11.4473 17.2598 11.3536 17.3536C11.2598 17.4473 11.1326 17.5 11 17.5Z" fill="#343953"/>
<path d="M3.5 7.5H3C2.86739 7.5 2.74021 7.44732 2.64645 7.35355C2.55268 7.25979 2.5 7.13261 2.5 7C2.5 6.86739 2.55268 6.74021 2.64645 6.64645C2.74021 6.55268 2.86739 6.5 3 6.5H3.5C3.63261 6.5 3.75979 6.55268 3.85355 6.64645C3.94732 6.74021 4 6.86739 4 7C4 7.13261 3.94732 7.25979 3.85355 7.35355C3.75979 7.44732 3.63261 7.5 3.5 7.5Z" fill="#343953"/>
<path d="M4.5 9.5H4C3.86739 9.5 3.74021 9.44732 3.64645 9.35355C3.55268 9.25979 3.5 9.13261 3.5 9C3.5 8.86739 3.55268 8.74021 3.64645 8.64645C3.74021 8.55268 3.86739 8.5 4 8.5H4.5C4.63261 8.5 4.75979 8.55268 4.85355 8.64645C4.94732 8.74021 5 8.86739 5 9C5 9.13261 4.94732 9.25979 4.85355 9.35355C4.75979 9.44732 4.63261 9.5 4.5 9.5Z" fill="#343953"/>
<path d="M25.5 16H17.5C17.3674 16 17.2402 15.9473 17.1464 15.8536C17.0527 15.7598 17 15.6326 17 15.5C17 15.3674 17.0527 15.2402 17.1464 15.1464C17.2402 15.0527 17.3674 15 17.5 15H25.5C25.6326 15 25.7598 15.0527 25.8536 15.1464C25.9473 15.2402 26 15.3674 26 15.5C26 15.6326 25.9473 15.7598 25.8536 15.8536C25.7598 15.9473 25.6326 16 25.5 16Z" fill="#343953"/>
<path d="M30 16H27C26.8674 16 26.7402 15.9473 26.6464 15.8536C26.5527 15.7598 26.5 15.6326 26.5 15.5C26.5 15.3674 26.5527 15.2402 26.6464 15.1464C26.7402 15.0527 26.8674 15 27 15H29.5V14H13.5V15H16C16.1326 15 16.2598 15.0527 16.3536 15.1464C16.4473 15.2402 16.5 15.3674 16.5 15.5C16.5 15.6326 16.4473 15.7598 16.3536 15.8536C16.2598 15.9473 16.1326 16 16 16H13C12.8674 16 12.7402 15.9473 12.6464 15.8536C12.5527 15.7598 12.5 15.6326 12.5 15.5V13.5C12.5 13.3674 12.5527 13.2402 12.6464 13.1464C12.7402 13.0527 12.8674 13 13 13H30C30.1326 13 30.2598 13.0527 30.3536 13.1464C30.4473 13.2402 30.5 13.3674 30.5 13.5V15.5C30.5 15.6326 30.4473 15.7598 30.3536 15.8536C30.2598 15.9473 30.1326 16 30 16Z" fill="#343953"/>
<path d="M17.5 17H16C15.8674 17 15.7402 16.9473 15.6464 16.8536C15.5527 16.7598 15.5 16.6326 15.5 16.5V13.5C15.5 13.3674 15.5527 13.2402 15.6464 13.1464C15.7402 13.0527 15.8674 13 16 13H17.5C17.6326 13 17.7598 13.0527 17.8536 13.1464C17.9473 13.2402 18 13.3674 18 13.5V16.5C18 16.6326 17.9473 16.7598 17.8536 16.8536C17.7598 16.9473 17.6326 17 17.5 17ZM16.5 16H17V14H16.5V16Z" fill="#343953"/>
<path d="M27 17H25.5C25.3674 17 25.2402 16.9473 25.1464 16.8536C25.0527 16.7598 25 16.6326 25 16.5V13.5C25 13.3674 25.0527 13.2402 25.1464 13.1464C25.2402 13.0527 25.3674 13 25.5 13H27C27.1326 13 27.2598 13.0527 27.3536 13.1464C27.4473 13.2402 27.5 13.3674 27.5 13.5V16.5C27.5 16.6326 27.4473 16.7598 27.3536 16.8536C27.2598 16.9473 27.1326 17 27 17ZM26 16H26.5V14H26V16Z" fill="#343953"/>
<path d="M29.9999 31.9999H28.4999C28.4066 32.0004 28.3149 31.9748 28.2354 31.9259C28.1559 31.877 28.0916 31.8069 28.0499 31.7234L27.4999 30.6179L26.9499 31.7234C26.9082 31.8069 26.8439 31.877 26.7644 31.9259C26.6849 31.9748 26.5932 32.0004 26.4999 31.9999H12.9999C12.8836 31.9999 12.7709 31.9592 12.6812 31.885C12.5916 31.8108 12.5307 31.7077 12.5089 31.5934L11.6039 26.8434C10.8705 22.9918 11.1904 19.0137 12.5299 15.3289C12.5753 15.2042 12.6683 15.1027 12.7885 15.0466C12.9087 14.9906 13.0463 14.9845 13.1709 15.0299C13.2956 15.0752 13.3971 15.1683 13.4532 15.2885C13.5092 15.4087 13.5153 15.5462 13.4699 15.6709C12.1921 19.1861 11.8867 22.9811 12.5859 26.6554L13.4139 30.9999H26.1909L27.0524 29.2764C27.0986 29.1989 27.1641 29.1347 27.2426 29.0902C27.321 29.0456 27.4097 29.0222 27.4999 29.0222C27.5901 29.0222 27.6788 29.0456 27.7572 29.0902C27.8357 29.1347 27.9012 29.1989 27.9474 29.2764L28.8089 30.9999H29.5859L30.4139 26.6554C31.1131 22.9811 30.8077 19.1861 29.5299 15.6709C29.4846 15.5462 29.4906 15.4087 29.5467 15.2885C29.6027 15.1683 29.7043 15.0752 29.8289 15.0299C29.9536 14.9845 30.0911 14.9906 30.2113 15.0466C30.3315 15.1027 30.4246 15.2042 30.4699 15.3289C31.8092 19.0134 32.1291 22.9912 31.3959 26.8424L30.4909 31.5924C30.4694 31.7069 30.4085 31.8102 30.3189 31.8846C30.2292 31.959 30.1164 31.9998 29.9999 31.9999Z" fill="#343953"/>
<path d="M21 32C20.8674 32 20.7402 31.9473 20.6464 31.8536C20.5527 31.7598 20.5 31.6326 20.5 31.5V15.5C20.5 15.3674 20.5527 15.2402 20.6464 15.1464C20.7402 15.0527 20.8674 15 21 15C21.1326 15 21.2598 15.0527 21.3536 15.1464C21.4473 15.2402 21.5 15.3674 21.5 15.5V31.5C21.5 31.6326 21.4473 31.7598 21.3536 31.8536C21.2598 31.9473 21.1326 32 21 32Z" fill="#343953"/>
<path d="M21 21C20.8674 21 20.7402 20.9473 20.6464 20.8536C20.5527 20.7598 20.5 20.6326 20.5 20.5C20.5 20.3674 20.5527 20.2402 20.6464 20.1464C20.7402 20.0527 20.8674 20 21 20C21.2652 20 21.5196 19.8946 21.7071 19.7071C21.8946 19.5196 22 19.2652 22 19V15.5C22 15.3674 22.0527 15.2402 22.1464 15.1464C22.2402 15.0527 22.3674 15 22.5 15C22.6326 15 22.7598 15.0527 22.8536 15.1464C22.9473 15.2402 23 15.3674 23 15.5V19C23 19.5304 22.7893 20.0391 22.4142 20.4142C22.0391 20.7893 21.5304 21 21 21Z" fill="#343953"/>
<path d="M31 21.5C30.9228 21.5008 30.8465 21.4837 30.777 21.45L29.0125 20.565C28.2557 20.1899 27.6192 19.6102 27.1751 18.8917C26.731 18.1732 26.4971 17.3447 26.5 16.5C26.5 16.3674 26.5527 16.2402 26.6465 16.1464C26.7402 16.0527 26.8674 16 27 16C27.1326 16 27.2598 16.0527 27.3536 16.1464C27.4473 16.2402 27.5 16.3674 27.5 16.5C27.4977 17.1588 27.6801 17.805 28.0265 18.3654C28.3728 18.9258 28.8693 19.3779 29.4595 19.6705L31.2235 20.5525C31.3244 20.6028 31.4054 20.6857 31.4532 20.7878C31.5011 20.8898 31.513 21.0051 31.4871 21.1148C31.4613 21.2245 31.3991 21.3223 31.3106 21.3922C31.2222 21.4621 31.1128 21.5001 31 21.5Z" fill="#343953"/>
<path d="M12 21.5C11.8863 21.5014 11.7755 21.464 11.686 21.394C11.5964 21.3239 11.5333 21.2255 11.5072 21.1148C11.4811 21.0041 11.4936 20.8878 11.5424 20.7852C11.5913 20.6825 11.6737 20.5995 11.776 20.55L13.54 19.668C14.13 19.3757 14.6263 18.924 14.9727 18.3641C15.3191 17.8042 15.5018 17.1584 15.5 16.5C15.5 16.3674 15.5527 16.2402 15.6465 16.1464C15.7402 16.0527 15.8674 16 16 16C16.1326 16 16.2598 16.0527 16.3536 16.1464C16.4474 16.2402 16.5 16.3674 16.5 16.5C16.5029 17.3447 16.2691 18.1732 15.825 18.8917C15.3809 19.6102 14.7443 20.1899 13.9875 20.565L12.2235 21.45C12.1539 21.4837 12.0774 21.5008 12 21.5Z" fill="#343953"/>
</svg>
