<svg width="45" height="45" viewBox="0 0 45 45" fill="none" xmlns="http://www.w3.org/2000/svg" alt="Created by Mada Creative from the Noun Project">
<path fill-rule="evenodd" clip-rule="evenodd" d="M22.5 0C10.0914 0 0 10.0914 0 22.5C0 34.9087 10.0914 45 22.5 45C34.9086 45 45 34.9087 45 22.5C45 10.0914 34.9086 0 22.5 0ZM21 3.06299V4.5C21 4.69708 21.0388 4.89223 21.1142 5.07431C21.1897 5.25638 21.3002 5.42182 21.4396 5.56118C21.5789 5.70053 21.7443 5.81108 21.9264 5.8865C22.1085 5.96191 22.3037 6.00073 22.5007 6.00073C22.6978 6.00073 22.893 5.96191 23.075 5.8865C23.2571 5.81108 23.4226 5.70053 23.5619 5.56118C23.7013 5.42182 23.8118 5.25638 23.8872 5.07431C23.9626 4.89223 24.0015 4.69708 24.0015 4.5V3.06299C28.2635 3.38635 32.1369 5.07217 35.1899 7.68896L34.166 8.71436C34.017 8.85125 33.8972 9.01688 33.8139 9.20127C33.7305 9.38567 33.6854 9.58502 33.6811 9.78732C33.6768 9.98963 33.7135 10.1907 33.7889 10.3785C33.8644 10.5662 33.977 10.7368 34.1201 10.8799C34.2632 11.023 34.4338 11.1356 34.6215 11.2111C34.8093 11.2865 35.0104 11.3232 35.2127 11.3189C35.415 11.3146 35.6143 11.2695 35.7987 11.1861C35.9831 11.1028 36.1487 10.983 36.2856 10.834L37.311 9.81006C39.9278 12.8631 41.6122 16.7365 41.9355 20.9985H40.4985C40.1005 20.9985 39.7188 21.1566 39.4374 21.4381C39.1559 21.7195 38.9978 22.1012 38.9978 22.4993C38.9978 22.8973 39.1559 23.279 39.4374 23.5604C39.7188 23.8419 40.1005 24 40.4985 24H41.937C41.6139 28.263 39.9285 32.1364 37.311 35.1899L36.2856 34.1646C36.146 34.021 35.9791 33.9069 35.7947 33.8289C35.6103 33.7509 35.4121 33.7107 35.2119 33.7104C34.9123 33.7093 34.6192 33.7979 34.3704 33.9649C34.1216 34.1319 33.9284 34.3695 33.8159 34.6472C33.7034 34.9249 33.6766 35.2299 33.739 35.523C33.8014 35.8161 33.9501 36.0837 34.166 36.2915L35.1899 37.311C32.1369 39.9277 28.2634 41.6122 24.0015 41.9355V40.4985C24.0038 40.2981 23.966 40.0992 23.8902 39.9136C23.8144 39.7281 23.7022 39.5596 23.5601 39.4181C23.4181 39.2766 23.2492 39.1651 23.0633 39.09C22.8775 39.0149 22.6785 38.9778 22.478 38.981C22.081 38.9868 21.7024 39.1498 21.4254 39.4343C21.1483 39.7187 20.9953 40.1015 21 40.4985V41.937C16.7375 41.6139 12.8649 39.928 9.81152 37.311L10.8354 36.2915C11.0545 36.0811 11.2044 35.8092 11.2656 35.5117C11.3267 35.2142 11.2961 34.9052 11.1779 34.6255C11.0596 34.3458 10.8592 34.1085 10.6032 33.9451C10.3472 33.7818 10.0477 33.6999 9.74414 33.7104C9.35291 33.7209 8.98126 33.8839 8.7085 34.1646L7.68896 35.1885C5.07186 32.135 3.38606 28.2626 3.06299 24H4.50146C4.89948 24 5.2812 23.8419 5.56264 23.5604C5.84408 23.279 6.0022 22.8973 6.0022 22.4993C6.0022 22.1012 5.84408 21.7195 5.56264 21.4381C5.2812 21.1566 4.89948 20.9985 4.50146 20.9985H3.06445C3.38779 16.7369 5.07107 12.863 7.6875 9.81006L8.7085 10.834C8.84767 10.9736 9.01299 11.0845 9.19502 11.1603C9.37705 11.2361 9.57222 11.2752 9.76938 11.2756C9.96655 11.2759 10.1619 11.2374 10.3441 11.1623C10.5264 11.0871 10.6921 10.9768 10.8318 10.8376C10.9714 10.6985 11.0823 10.5331 11.1581 10.3511C11.2339 10.1691 11.273 9.97393 11.2734 9.77676C11.2737 9.57959 11.2352 9.38429 11.1601 9.202C11.0849 9.01972 10.9746 8.85401 10.8354 8.71436L9.81006 7.68896C12.8636 5.07146 16.737 3.3861 21 3.06299Z" fill="#FAF9FA"/>
<path d="M22.4779 8.98015C22.2809 8.98301 22.0863 9.02466 21.9054 9.10273C21.7244 9.1808 21.5606 9.29379 21.4234 9.43517C21.2861 9.57656 21.178 9.74362 21.1053 9.92679C21.0326 10.11 20.9967 10.3056 20.9997 10.5027V22.5001C20.9991 22.6973 21.0375 22.8927 21.1125 23.0751C21.1876 23.2575 21.2979 23.4233 21.4371 23.5631L28.9389 31.0594C29.0764 31.206 29.242 31.3236 29.4259 31.405C29.6097 31.4864 29.8081 31.5299 30.0091 31.5332C30.2101 31.5364 30.4098 31.4992 30.5961 31.4237C30.7825 31.3483 30.9518 31.2362 31.094 31.094C31.2361 30.9518 31.3483 30.7825 31.4237 30.5961C31.4992 30.4098 31.5364 30.2101 31.5331 30.0091C31.5299 29.8081 31.4863 29.6098 31.4049 29.426C31.3235 29.2421 31.206 29.0765 31.0594 28.9389L24.0004 21.88V10.5027C24.0034 10.3019 23.9661 10.1026 23.8907 9.9165C23.8152 9.73041 23.7032 9.56133 23.5612 9.41934C23.4192 9.27736 23.2502 9.16537 23.0641 9.08993C22.878 9.01448 22.6787 8.97713 22.4779 8.98015Z" fill="#FAF9FA"/>
</svg>
