<svg width="114" height="114" viewBox="0 0 114 114" fill="none" xmlns="http://www.w3.org/2000/svg"  alt="Created by wahyakup from the Noun Project">
<path d="M100.75 17.625H96.375V13.25C96.375 6.01244 90.4876 0.125 83.25 0.125H13.25C6.01244 0.125 0.125 6.01244 0.125 13.25V83.25C0.125 90.4876 6.01244 96.375 13.25 96.375H17.625V100.75C17.625 107.988 23.5124 113.875 30.75 113.875H100.75C107.988 113.875 113.875 107.988 113.875 100.75V30.75C113.875 23.5124 107.988 17.625 100.75 17.625ZM13.25 8.875H83.25C85.6641 8.875 87.625 10.8381 87.625 13.25V37.8537L60.9349 68.3606L33.5955 44.9281C31.8608 43.4392 29.2717 43.5373 27.6569 45.1564L8.875 63.9383V13.25C8.875 10.8381 10.8359 8.875 13.25 8.875ZM8.875 83.25V76.3117L30.9806 54.2083L58.5295 77.8224C59.3542 78.5289 60.3666 78.875 61.375 78.875C62.5926 78.875 63.8018 78.3688 64.6689 77.3818L87.625 51.1462V83.25C87.625 85.6619 85.6641 87.625 83.25 87.625H13.25C10.8359 87.625 8.875 85.6619 8.875 83.25ZM105.125 100.75C105.125 103.162 103.164 105.125 100.75 105.125H30.75C28.3359 105.125 26.375 103.162 26.375 100.75V96.375H83.25C90.4876 96.375 96.375 90.4876 96.375 83.25V26.375H100.75C103.164 26.375 105.125 28.3381 105.125 30.75V100.75Z" fill="#343953"/>
<path d="M57 43.875C64.2376 43.875 70.125 37.9876 70.125 30.75C70.125 23.5124 64.2376 17.625 57 17.625C49.7624 17.625 43.875 23.5124 43.875 30.75C43.875 37.9876 49.7624 43.875 57 43.875ZM57 26.375C59.4141 26.375 61.375 28.3381 61.375 30.75C61.375 33.1619 59.4141 35.125 57 35.125C54.5859 35.125 52.625 33.1619 52.625 30.75C52.625 28.3381 54.5859 26.375 57 26.375Z" fill="#343953"/>
</svg>
