<svg width="64" height="64" viewBox="0 0 64 64" fill="none" xmlns="http://www.w3.org/2000/svg" alt="datacenter by ProSymbols from the Noun Project">
<path d="M19.9372 50.0998C19.3372 50.2998 18.6372 50.5998 18.1372 50.9998C16.8372 47.7998 15.8372 44.0998 15.3372 40.1998C16.0372 40.1998 16.7372 39.9998 17.3372 39.7998C17.8372 43.4998 18.7372 46.9998 19.9372 50.0998Z" fill="current"/>
<path d="M18.7371 17.3001C17.8371 20.3001 17.3371 23.6001 17.0371 26.9001C16.4371 26.7001 15.8371 26.6001 15.0371 26.6001C15.3371 23.1001 15.9371 19.7001 16.8371 16.6001C17.4371 16.9001 18.0371 17.2001 18.7371 17.3001Z" fill="current"/>
<path d="M44.7373 25.1998C44.2373 25.5998 43.7373 26.0998 43.3373 26.6998C42.3373 25.7998 41.2373 24.8998 40.0373 23.9998C36.9373 21.4998 33.6373 19.1998 30.3373 17.1998C26.4373 20.6998 22.7373 24.6998 19.5373 28.5998C19.0373 28.0998 18.5373 27.6998 17.9373 27.3998C20.9373 23.6998 24.6373 19.6998 28.5373 16.0998C27.6373 15.5998 26.7373 14.9998 25.8373 14.4998C26.2373 13.8998 26.5373 13.2998 26.7373 12.6998C27.8373 13.2998 29.0373 13.9998 30.1373 14.6998C31.9373 13.0998 33.7373 11.6998 35.4373 10.2998C35.7373 10.8998 36.1373 11.4998 36.5373 11.9998C34.9373 13.1998 33.4373 14.4998 31.8373 15.7998C35.0373 17.7998 38.1373 20.0998 41.2373 22.4998C42.5373 23.3998 43.6373 24.2998 44.7373 25.1998Z" fill="current"/>
<path d="M48.5373 23.7999C47.8373 23.7999 47.2373 23.9999 46.5373 24.1999C46.0373 20.3999 45.1373 16.8999 43.9373 13.7999C44.5373 13.5999 45.1373 13.2999 45.7373 12.8999C47.0373 16.0999 47.9373 19.7999 48.5373 23.7999Z" fill="current"/>
<path d="M37.7371 1.9C37.1371 2.3 36.6371 2.8 36.2371 3.3C34.8371 2.5 33.4371 2 31.9371 2C28.9371 2 26.5371 3.7 24.7371 5.6C24.2371 5.1 23.6371 4.8 23.0371 4.5C25.6371 1.5 28.7371 0 31.9371 0C33.9371 0 35.8371 0.7 37.7371 1.9Z" fill="current"/>
<path d="M35.2371 47.7002C36.1371 48.2002 37.0371 48.8002 37.9371 49.3002C37.5371 49.8002 37.2371 50.5002 37.1371 51.1002C35.9371 50.5002 34.8371 49.8002 33.7371 49.1002C31.9371 50.7002 30.0371 52.3002 28.2371 53.6002C27.9371 53.0002 27.5371 52.4002 27.1371 51.9002C28.7371 50.7002 30.3371 49.4002 31.9371 47.9002C27.3371 44.9002 22.8371 41.6002 19.2371 38.5002C19.7371 38.1002 20.2371 37.6002 20.5371 37.0002C24.3371 40.2002 28.8371 43.6002 33.4371 46.5002C36.1371 44.0002 38.9371 41.2002 41.5371 38.2002C42.4371 37.2002 43.2371 36.2002 44.0371 35.2002C44.5371 35.7002 45.0371 36.1002 45.6371 36.4002C44.8371 37.4002 43.9371 38.4002 43.0371 39.5002C40.5371 42.6002 37.9371 45.3002 35.2371 47.7002Z" fill="current"/>
<path d="M48.8372 37.4001C48.5372 40.8001 47.9372 44.1001 47.0372 47.2001C46.4372 46.9001 45.8372 46.6001 45.1372 46.5001C46.0372 43.6001 46.5372 40.4001 46.8372 37.1001C47.4372 37.3001 48.1372 37.4001 48.8372 37.4001Z" fill="current"/>
<path d="M40.8371 59.3002C38.2371 62.3002 35.1371 63.8002 31.9371 63.8002C29.9371 63.8002 28.0371 63.2002 26.2371 62.0002C26.7371 61.6002 27.2371 61.1002 27.6371 60.5002C29.0371 61.4002 30.4371 61.8002 31.9371 61.8002C34.8371 61.8002 37.3371 60.1002 39.1371 58.2002C39.6371 58.6002 40.1371 59.0002 40.8371 59.3002Z" fill="current"/>
<path d="M62.3373 56.1001C59.3373 59.1001 53.4373 57.9001 49.4373 56.6001C49.7373 56.0001 50.0373 55.4001 50.2373 54.7001C55.4373 56.3001 59.2373 56.3001 60.9373 54.6001C63.7373 51.9001 60.4373 44.4001 52.9373 36.0001C53.4373 35.6001 53.9373 35.1001 54.3373 34.6001C63.0373 44.2001 66.1373 52.4001 62.3373 56.1001Z" fill="current"/>
<path d="M2.93718 9.1999C0.137182 11.8999 3.43718 19.3999 10.9372 27.7999C10.4372 28.1999 9.93718 28.6999 9.53718 29.1999C0.937182 19.4999 -2.16282 11.3999 1.53718 7.6999C4.33718 4.8999 9.73718 5.6999 14.5372 7.1999C14.1372 7.7999 13.9372 8.3999 13.7372 9.0999C8.43718 7.4999 4.63718 7.4999 2.93718 9.1999Z" fill="current"/>
<path d="M53.4372 25.6001C52.9372 25.1001 52.4372 24.8001 51.7372 24.5001C57.3372 15.1001 58.9372 7.20008 55.7372 5.00008C54.1372 3.90008 51.4372 4.00008 48.0372 5.30008C47.8372 4.60008 47.5372 4.00008 47.1372 3.50008C51.3372 1.90008 54.6372 1.80008 56.8372 3.30008C61.3372 6.30008 59.9372 14.7001 53.4372 25.6001Z" fill="current"/>
<path d="M16.5371 60.3999C14.4371 61.1999 12.5371 61.5999 10.9371 61.5999C9.33706 61.5999 8.03706 61.1999 7.03706 60.4999C2.63706 57.4999 3.93706 49.1999 10.3371 38.3999C10.8371 38.8999 11.4371 39.1999 12.0371 39.4999C6.33706 48.9999 4.83706 56.5999 8.13706 58.8999C9.63706 59.9999 12.3371 59.8999 15.6371 58.5999C15.8371 59.2999 16.1371 59.8999 16.5371 60.3999Z" fill="current"/>
<path d="M14.8371 38.2003C12.1371 38.2003 10.0371 36.0003 10.0371 33.4003C10.0371 30.2003 13.1371 27.9003 16.1371 28.8003C18.1371 29.3003 19.6371 31.2003 19.6371 33.4003C19.6371 36.1003 17.5371 38.2003 14.8371 38.2003Z" fill="current"/>
<path d="M15.437 10.6999C15.437 7.9999 17.637 5.8999 20.237 5.8999C22.937 5.8999 25.037 7.9999 25.037 10.6999C25.037 13.2999 22.937 15.4999 20.237 15.4999C17.637 15.4999 15.437 13.2999 15.437 10.6999Z" fill="current"/>
<path d="M53.7372 30.6003C53.7372 33.2003 51.6372 35.4003 48.9372 35.4003C46.2372 35.4003 44.1372 33.2003 44.1372 30.6003C44.1372 28.0003 46.2372 25.8003 48.9372 25.8003C51.5372 25.8003 53.7372 28.0003 53.7372 30.6003Z" fill="current"/>
<path d="M22.0371 61.4003C24.688 61.4003 26.8371 59.2513 26.8371 56.6003C26.8371 53.9493 24.688 51.8003 22.0371 51.8003C19.3861 51.8003 17.2371 53.9493 17.2371 56.6003C17.2371 59.2513 19.3861 61.4003 22.0371 61.4003Z" fill="current"/>
<path d="M48.4372 53.1003C48.4372 55.8003 46.2372 57.9003 43.6372 57.9003C41.0372 57.9003 38.8372 55.7003 38.8372 53.1003C38.8372 50.5003 41.0372 48.3003 43.6372 48.3003C46.2372 48.3003 48.4372 50.4003 48.4372 53.1003Z" fill="current"/>
<path d="M41.6372 12.2001C38.9372 12.2001 36.8372 10.1001 36.8372 7.4001C36.8372 4.7001 38.9372 2.6001 41.6372 2.6001C44.2372 2.6001 46.4372 4.7001 46.4372 7.4001C46.4372 10.1001 44.2372 12.2001 41.6372 12.2001Z" fill="current"/>
<path d="M37.9371 24.8V26.4C37.9371 27.4 37.1371 28.2 36.1371 28.2H28.5371C27.5371 28.2 26.7371 27.4 26.7371 26.4V24.8C26.7371 23.8 27.5371 23 28.5371 23H36.1371C37.1371 23 37.9371 23.8 37.9371 24.8Z" fill="current"/>
<path d="M37.9371 37.3999V38.9999C37.9371 39.9999 37.1371 40.7999 36.1371 40.7999H28.5371C27.5371 40.7999 26.7371 39.9999 26.7371 38.9999V37.3999C26.7371 36.3999 27.5371 35.5999 28.5371 35.5999H36.1371C37.1371 35.4999 37.9371 36.3999 37.9371 37.3999Z" fill="current"/>
<path d="M37.9371 31.0998V32.6998C37.9371 33.6998 37.1371 34.4998 36.1371 34.4998H28.5371C27.5371 34.4998 26.7371 33.6998 26.7371 32.6998V31.0998C26.7371 30.0998 27.5371 29.2998 28.5371 29.2998H36.1371C37.1371 29.2998 37.9371 30.0998 37.9371 31.0998Z" fill="current"/>
</svg>
