<svg width="261" height="152" viewBox="0 0 261 152" fill="none" xmlns="http://www.w3.org/2000/svg">
<path d="M236.789 151.625H24.0706C14.1168 151.625 5.21571 145.325 1.91883 135.942C-1.40319 126.469 1.66516 115.932 9.56471 109.735C10.0212 109.37 10.5031 109.056 11.0102 108.793C11.7075 108.389 12.4431 108.011 12.9376 107.819L120.698 65.551V58.4626C110.364 53.5212 103.466 43.036 103.466 31.083C103.466 14.3168 117.135 0.678467 133.948 0.678467C150.736 0.678467 164.405 14.3168 164.405 31.083C164.405 36.5179 160.043 40.9274 154.667 40.9274C149.291 40.9274 144.929 36.5179 144.929 31.083C144.929 25.1739 140.009 20.3671 133.948 20.3671C127.875 20.3671 122.942 25.1739 122.942 31.083C122.942 36.2935 126.772 40.7223 132.046 41.6132C136.738 42.408 140.174 46.5162 140.174 51.323V65.551L247.997 107.845C248.898 108.197 250.597 109.165 251.345 109.767C259.206 115.952 262.275 126.482 258.953 135.942C255.644 145.331 246.73 151.625 236.789 151.625ZM20.9894 125.783C20.1272 126.77 19.8481 128.129 20.2792 129.366C20.8117 130.904 22.346 131.936 24.0706 131.936H236.789C238.526 131.936 240.06 130.898 240.605 129.347C241.024 128.129 240.732 126.77 239.882 125.777L130.436 82.8552L20.9894 125.783Z" fill="#343953"/>
</svg>
